<?xml version="1.0" standalone="no"?>
<!DOCTYPE svg PUBLIC "-//W3C//DTD SVG 20010904//EN"
 "http://www.w3.org/TR/2001/REC-SVG-20010904/DTD/svg10.dtd">
<svg version="1.0" xmlns="http://www.w3.org/2000/svg"
 width="920.000000pt" height="920.000000pt" viewBox="0 0 920.000000 920.000000"
 preserveAspectRatio="xMidYMid meet">

<g transform="translate(0.000000,920.000000) scale(0.100000,-0.100000)"
fill="#000000" stroke="none">
<path d="M2655 8325 c-529 -63 -1011 -325 -1337 -729 -251 -311 -399 -664
-443 -1056 -22 -202 -22 -3678 0 -3880 92 -823 676 -1509 1468 -1725 284 -77
220 -75 2255 -75 2000 0 1960 -1 2216 65 727 187 1274 734 1461 1461 66 256
65 217 65 2214 0 1565 -2 1819 -16 1942 -93 843 -699 1534 -1524 1737 -253 62
-212 61 -2215 60 -1421 -1 -1844 -4 -1930 -14z m3970 -592 c186 -44 341 -111
490 -208 319 -210 541 -540 621 -920 18 -86 19 -166 19 -2005 0 -1839 -1
-1919 -19 -2005 -120 -573 -558 -1011 -1131 -1131 -86 -18 -166 -19 -2005 -19
-1839 0 -1919 1 -2005 19 -505 106 -911 461 -1078 942 -19 54 -43 140 -53 189
-18 86 -19 166 -19 2005 0 1839 1 1919 19 2005 80 381 301 708 621 920 185
121 360 187 615 228 14 3 882 4 1930 3 l1905 -2 90 -21z"/>
<path d="M6360 6886 c-188 -53 -320 -224 -320 -415 0 -293 287 -503 562 -410
254 85 370 371 247 611 -29 57 -124 150 -185 181 -91 46 -211 59 -304 33z"/>
<path d="M4339 6305 c-604 -94 -1123 -510 -1343 -1075 -83 -215 -116 -391
-116 -627 0 -238 33 -420 115 -631 199 -509 647 -907 1173 -1041 195 -50 484
-68 662 -41 639 98 1148 501 1378 1092 77 196 114 397 114 618 0 399 -127 762
-371 1067 -284 355 -679 581 -1124 642 -106 15 -382 12 -488 -4z m447 -570
c360 -63 667 -286 832 -602 328 -630 17 -1397 -657 -1623 -598 -201 -1249 125
-1450 726 -160 476 7 996 415 1295 128 94 325 177 484 204 105 18 272 18 376
0z"/>
</g>
</svg>
