<?xml version="1.0" standalone="no"?>
<!DOCTYPE svg PUBLIC "-//W3C//DTD SVG 20010904//EN"
 "http://www.w3.org/TR/2001/REC-SVG-20010904/DTD/svg10.dtd">
<svg version="1.0" xmlns="http://www.w3.org/2000/svg"
 width="2048.000000pt" height="2048.000000pt" viewBox="0 0 2048.000000 2048.000000"
 preserveAspectRatio="xMidYMid meet">

<g transform="translate(0.000000,2048.000000) scale(0.100000,-0.100000)"
fill="#000000" stroke="none">
<path d="M9740 20440 c-833 -46 -1595 -174 -2355 -394 -2243 -649 -4215 -2073
-5551 -4006 -988 -1429 -1585 -3058 -1758 -4795 -36 -354 -41 -487 -41 -1010
0 -539 5 -652 46 -1055 205 -2024 1037 -3979 2353 -5530 264 -311 711 -772
986 -1016 1727 -1534 3803 -2415 6095 -2584 411 -31 1085 -28 1510 5 1909 149
3707 813 5242 1936 2337 1713 3845 4338 4132 7199 40 395 46 536 46 1055 0
517 -5 636 -46 1035 -107 1071 -381 2104 -825 3110 -94 215 -341 701 -459 905
-624 1082 -1403 2010 -2347 2798 -620 517 -1368 1000 -2073 1338 -1199 575
-2405 896 -3735 994 -251 19 -988 28 -1220 15z m-275 -5410 c2504 -93 4732
-563 6630 -1400 398 -176 1072 -531 1237 -652 308 -226 448 -626 352 -1003
-21 -81 -94 -233 -148 -309 -56 -78 -196 -211 -269 -254 -212 -127 -461 -171
-692 -123 -109 23 -191 55 -310 123 -242 137 -347 194 -552 297 -1674 838
-3846 1330 -6283 1422 -347 13 -1356 7 -1650 -11 -1276 -75 -2289 -231 -3235
-500 -245 -70 -336 -85 -461 -76 -234 16 -444 111 -612 278 -113 112 -188 234
-235 383 -107 339 -17 705 233 955 131 132 256 198 513 274 1118 330 2536 541
3997 595 319 12 1176 12 1485 1z m-185 -3520 c2442 -129 4701 -770 6498 -1842
200 -120 284 -189 363 -301 235 -335 166 -805 -156 -1064 -133 -107 -278 -162
-448 -170 -198 -10 -301 20 -532 157 -1094 647 -2330 1104 -3725 1379 -2130
419 -4335 351 -6240 -194 -233 -66 -308 -79 -416 -72 -111 8 -192 30 -299 82
-204 99 -353 278 -417 501 -32 112 -32 296 0 407 67 235 231 427 447 522 68
30 421 132 698 200 975 243 1963 374 3077 409 185 6 949 -4 1150 -14z m110
-3330 c1978 -113 3657 -604 5220 -1528 184 -109 268 -189 329 -313 94 -190 94
-378 0 -569 -59 -119 -163 -222 -280 -278 -127 -60 -240 -80 -362 -63 -93 13
-159 37 -262 97 -44 25 -150 87 -235 136 -202 116 -676 353 -905 450 -1132
484 -2318 745 -3680 809 -315 15 -1115 6 -1425 -15 -879 -61 -1755 -190 -2625
-386 -306 -69 -508 -20 -685 166 -113 120 -171 263 -171 429 -1 200 91 386
251 506 108 81 169 100 640 198 1072 222 2039 340 3085 375 181 6 916 -3 1105
-14z"/>
</g>
</svg>
