<?xml version="1.0" standalone="no"?>
<!DOCTYPE svg PUBLIC "-//W3C//DTD SVG 20010904//EN"
 "http://www.w3.org/TR/2001/REC-SVG-20010904/DTD/svg10.dtd">
<svg version="1.0" xmlns="http://www.w3.org/2000/svg"
 width="600.000000pt" height="600.000000pt" viewBox="0 0 600.000000 600.000000"
 preserveAspectRatio="xMidYMid meet">

<g transform="translate(0.000000,600.000000) scale(0.100000,-0.100000)"
fill="#000000" stroke="none">
<path d="M2738 5530 c-632 -72 -1169 -333 -1599 -777 -196 -203 -330 -392
-455 -643 -354 -713 -346 -1558 21 -2267 396 -763 1148 -1276 2015 -1373 141
-16 446 -14 596 5 582 71 1111 330 1524 745 731 735 938 1824 528 2780 -191
446 -532 848 -953 1123 -311 202 -665 335 -1047 393 -121 18 -517 27 -630 14z
m1088 -1275 c89 -30 148 -62 222 -123 46 -38 57 -42 85 -36 60 13 231 76 298
110 77 38 79 39 79 22 0 -53 -120 -232 -202 -302 l-40 -34 69 15 c37 8 106 28
153 43 46 16 86 27 88 25 19 -19 -160 -228 -257 -299 l-48 -35 -7 -143 c-19
-417 -122 -754 -317 -1048 -90 -137 -291 -335 -433 -428 -316 -208 -672 -312
-1064 -312 -366 0 -728 94 -995 257 l-62 38 185 7 c150 5 204 11 285 31 106
27 283 90 350 125 51 26 125 80 125 90 0 5 -38 18 -84 30 -211 51 -375 174
-463 343 -52 101 -53 99 87 99 66 0 120 4 120 8 0 4 -20 14 -45 21 -59 17
-153 75 -220 134 -109 96 -196 269 -211 421 l-7 69 24 -6 c13 -3 56 -17 94
-31 39 -13 90 -27 114 -31 l44 -7 -74 73 c-114 114 -179 258 -195 433 -10 111
27 266 78 331 l20 26 117 -113 c132 -130 212 -191 360 -279 191 -114 425 -200
692 -254 183 -36 166 -46 165 93 -1 96 3 131 22 192 62 199 221 365 418 437
94 34 156 43 261 38 64 -3 117 -13 169 -30z"/>
</g>
</svg>
