<?xml version="1.0" standalone="no"?>
<!DOCTYPE svg PUBLIC "-//W3C//DTD SVG 20010904//EN"
 "http://www.w3.org/TR/2001/REC-SVG-20010904/DTD/svg10.dtd">
<svg version="1.0" xmlns="http://www.w3.org/2000/svg"
 width="512.000000pt" height="512.000000pt" viewBox="0 0 512.000000 512.000000"
 preserveAspectRatio="xMidYMid meet">

<g transform="translate(0.000000,512.000000) scale(0.100000,-0.100000)"
fill="#000000" stroke="none">
<path d="M1171 4259 c-126 -16 -297 -84 -391 -153 -119 -89 -232 -233 -288
-368 -63 -152 -62 -132 -62 -1178 0 -1046 -1 -1026 62 -1177 102 -248 319
-434 588 -505 l85 -23 1395 0 1395 0 85 22 c47 13 131 45 187 73 172 85 325
250 401 431 63 153 62 132 62 1179 0 1047 1 1026 -62 1179 -44 105 -115 206
-206 293 -112 107 -228 170 -393 215 -59 16 -171 17 -1429 19 -751 1 -1394 -2
-1429 -7z m2822 -448 c115 -46 215 -152 253 -268 18 -55 19 -101 19 -983 0
-882 -1 -928 -19 -983 -38 -116 -138 -222 -253 -268 l-58 -24 -1375 0 -1375 0
-58 24 c-111 44 -207 143 -250 258 -22 58 -22 60 -25 953 -3 954 -2 979 45
1079 31 65 121 159 181 190 102 52 46 50 1502 48 l1355 -2 58 -24z"/>
<path d="M2059 3404 c-63 -19 -122 -84 -138 -152 -17 -69 4 -144 53 -193 19
-18 208 -137 420 -264 212 -126 385 -232 385 -235 0 -3 -95 -62 -212 -132
l-212 -126 -5 156 c-6 168 -17 208 -72 259 -81 76 -221 69 -300 -14 -56 -59
-58 -71 -58 -455 0 -218 4 -368 11 -391 25 -90 122 -153 223 -145 51 4 93 28
612 339 307 183 571 347 587 364 40 39 57 83 57 145 0 61 -17 106 -57 145 -33
34 -1109 682 -1163 702 -45 16 -74 15 -131 -3z"/>
</g>
</svg>
